<?xml version="1.0" encoding="UTF-8" standalone="no"?>
<!DOCTYPE svg PUBLIC "-//W3C//DTD SVG 1.1//EN"
 "http://www.w3.org/Graphics/SVG/1.1/DTD/svg11.dtd">
<!-- Generated by graphviz version 2.43.0 (0)
 -->
<!-- Title: flow Pages: 1 -->
<svg width="325pt" height="305pt"
 viewBox="0.00 0.00 325.00 305.00" xmlns="http://www.w3.org/2000/svg" xmlns:xlink="http://www.w3.org/1999/xlink">
<g id="graph0" class="graph" transform="scale(1 1) rotate(0) translate(4 301)">
<title>flow</title>
<polygon fill="white" stroke="transparent" points="-4,4 -4,-301 321,-301 321,4 -4,4"/>
<!-- a -->
<g id="node1" class="node">
<title>a</title>
<polygon fill="none" stroke="#242424" points="148.5,-297 41.5,-297 41.5,-261 148.5,-261 148.5,-297"/>
<text text-anchor="middle" x="95" y="-275.3" font-family="Times,serif" font-size="14.00" fill="#242424">input widget</text>
</g>
<!-- b -->
<g id="node2" class="node">
<title>b</title>
<polygon fill="none" stroke="#242424" points="190,-210 0,-210 0,-174 190,-174 190,-210"/>
<text text-anchor="middle" x="95" y="-188.3" font-family="Times,serif" font-size="14.00" fill="#242424">database query function</text>
</g>
<!-- a&#45;&gt;b -->
<g id="edge1" class="edge">
<title>a&#45;&gt;b</title>
<path fill="none" stroke="#242424" d="M95,-260.8C95,-249.16 95,-233.55 95,-220.24"/>
<polygon fill="#242424" stroke="#242424" points="98.5,-220.18 95,-210.18 91.5,-220.18 98.5,-220.18"/>
<text text-anchor="middle" x="132.5" y="-231.8" font-family="Times,serif" font-size="14.00">dataset ID</text>
</g>
<!-- d -->
<g id="node3" class="node">
<title>d</title>
<polygon fill="none" stroke="#242424" points="205,-123 151,-123 151,-87 205,-87 205,-123"/>
<text text-anchor="middle" x="178" y="-101.3" font-family="Times,serif" font-size="14.00" fill="#242424">filter</text>
</g>
<!-- b&#45;&gt;d -->
<g id="edge2" class="edge">
<title>b&#45;&gt;d</title>
<path fill="none" stroke="#242424" d="M111.8,-173.8C123.95,-161.36 140.54,-144.36 154.07,-130.5"/>
<polygon fill="#242424" stroke="#242424" points="156.75,-132.78 161.23,-123.18 151.74,-127.88 156.75,-132.78"/>
<text text-anchor="middle" x="169" y="-144.8" font-family="Times,serif" font-size="14.00">dataset</text>
</g>
<!-- e -->
<g id="node5" class="node">
<title>e</title>
<polygon fill="none" stroke="#242424" points="238.5,-36 117.5,-36 117.5,0 238.5,0 238.5,-36"/>
<text text-anchor="middle" x="178" y="-14.3" font-family="Times,serif" font-size="14.00" fill="#242424">display widget</text>
</g>
<!-- d&#45;&gt;e -->
<g id="edge4" class="edge">
<title>d&#45;&gt;e</title>
<path fill="none" stroke="#242424" d="M178,-86.8C178,-75.16 178,-59.55 178,-46.24"/>
<polygon fill="#242424" stroke="#242424" points="181.5,-46.18 178,-36.18 174.5,-46.18 181.5,-46.18"/>
<text text-anchor="middle" x="233" y="-57.8" font-family="Times,serif" font-size="14.00">filtered dataset</text>
</g>
<!-- c -->
<g id="node4" class="node">
<title>c</title>
<polygon fill="none" stroke="#242424" points="315.5,-210 208.5,-210 208.5,-174 315.5,-174 315.5,-210"/>
<text text-anchor="middle" x="262" y="-188.3" font-family="Times,serif" font-size="14.00" fill="#242424">input widget</text>
</g>
<!-- c&#45;&gt;d -->
<g id="edge3" class="edge">
<title>c&#45;&gt;d</title>
<path fill="none" stroke="#242424" d="M245,-173.8C232.7,-161.36 215.91,-144.36 202.22,-130.5"/>
<polygon fill="#242424" stroke="#242424" points="204.49,-127.83 194.97,-123.18 199.51,-132.75 204.49,-127.83"/>
<text text-anchor="middle" x="271" y="-144.8" font-family="Times,serif" font-size="14.00">filter criteria</text>
</g>
</g>
</svg>
