<?xml version="1.0" encoding="UTF-8" standalone="no"?>
<!DOCTYPE svg PUBLIC "-//W3C//DTD SVG 1.1//EN"
 "http://www.w3.org/Graphics/SVG/1.1/DTD/svg11.dtd">
<!-- Generated by graphviz version 2.43.0 (0)
 -->
<!-- Title: flow Pages: 1 -->
<svg width="90pt" height="332pt"
 viewBox="0.00 0.00 90.00 332.00" xmlns="http://www.w3.org/2000/svg" xmlns:xlink="http://www.w3.org/1999/xlink">
<g id="graph0" class="graph" transform="scale(1 1) rotate(0) translate(4 328)">
<title>flow</title>
<polygon fill="white" stroke="transparent" points="-4,4 -4,-328 86,-328 86,4 -4,4"/>
<!-- a -->
<g id="node1" class="node">
<title>a</title>
<ellipse fill="none" stroke="#242424" cx="27" cy="-306" rx="27" ry="18"/>
<text text-anchor="middle" x="27" y="-302.3" font-family="Times,serif" font-size="14.00" fill="#242424">a</text>
</g>
<!-- b -->
<g id="node2" class="node">
<title>b</title>
<ellipse fill="none" stroke="#242424" cx="27" cy="-234" rx="27" ry="18"/>
<text text-anchor="middle" x="27" y="-230.3" font-family="Times,serif" font-size="14.00" fill="#242424">b</text>
</g>
<!-- a&#45;&gt;b -->
<g id="edge1" class="edge">
<title>a&#45;&gt;b</title>
<path fill="none" stroke="#242424" d="M27,-287.7C27,-279.98 27,-270.71 27,-262.11"/>
<polygon fill="#242424" stroke="#242424" points="30.5,-262.1 27,-252.1 23.5,-262.1 30.5,-262.1"/>
</g>
<!-- c -->
<g id="node3" class="node">
<title>c</title>
<ellipse fill="none" stroke="#242424" cx="27" cy="-162" rx="27" ry="18"/>
<text text-anchor="middle" x="27" y="-158.3" font-family="Times,serif" font-size="14.00" fill="#242424">c</text>
</g>
<!-- b&#45;&gt;c -->
<g id="edge2" class="edge">
<title>b&#45;&gt;c</title>
<path fill="none" stroke="#242424" d="M27,-215.7C27,-207.98 27,-198.71 27,-190.11"/>
<polygon fill="#242424" stroke="#242424" points="30.5,-190.1 27,-180.1 23.5,-190.1 30.5,-190.1"/>
</g>
<!-- e -->
<g id="node4" class="node">
<title>e</title>
<ellipse fill="none" stroke="#242424" cx="27" cy="-18" rx="27" ry="18"/>
<text text-anchor="middle" x="27" y="-14.3" font-family="Times,serif" font-size="14.00" fill="#242424">e</text>
</g>
<!-- c&#45;&gt;e -->
<g id="edge3" class="edge">
<title>c&#45;&gt;e</title>
<path fill="none" stroke="#242424" d="M23.75,-143.89C21.95,-133.54 19.91,-120.06 19,-108 17.8,-92.04 17.8,-87.96 19,-72 19.64,-63.52 20.84,-54.34 22.12,-46.04"/>
<polygon fill="#242424" stroke="#242424" points="25.58,-46.55 23.75,-36.11 18.68,-45.41 25.58,-46.55"/>
</g>
<!-- d -->
<g id="node5" class="node">
<title>d</title>
<ellipse fill="none" stroke="#242424" cx="55" cy="-90" rx="27" ry="18"/>
<text text-anchor="middle" x="55" y="-86.3" font-family="Times,serif" font-size="14.00" fill="#242424">d</text>
</g>
<!-- c&#45;&gt;d -->
<g id="edge4" class="edge">
<title>c&#45;&gt;d</title>
<path fill="none" stroke="#242424" d="M33.64,-144.41C36.91,-136.22 40.94,-126.14 44.62,-116.95"/>
<polygon fill="#242424" stroke="#242424" points="47.95,-118.05 48.41,-107.47 41.45,-115.45 47.95,-118.05"/>
</g>
<!-- d&#45;&gt;e -->
</g>
</svg>
