<?xml version="1.0" encoding="UTF-8" standalone="no"?>
<!DOCTYPE svg PUBLIC "-//W3C//DTD SVG 1.1//EN"
 "http://www.w3.org/Graphics/SVG/1.1/DTD/svg11.dtd">
<!-- Generated by graphviz version 2.43.0 (0)
 -->
<!-- Title: flow Pages: 1 -->
<svg width="576pt" height="372pt"
 viewBox="0.00 0.00 576.00 372.00" xmlns="http://www.w3.org/2000/svg" xmlns:xlink="http://www.w3.org/1999/xlink">
<g id="graph0" class="graph" transform="scale(1 1) rotate(0) translate(4 368)">
<title>flow</title>
<polygon fill="white" stroke="transparent" points="-4,4 -4,-368 572,-368 572,4 -4,4"/>
<g id="clust1" class="cluster">
<title>cluster_controller</title>
</g>
<!-- state -->
<g id="node1" class="node">
<title>state</title>
<polygon fill="none" stroke="#424242" points="89,-259 0,-259 0,-221 95,-221 95,-253 89,-259"/>
<polyline fill="none" stroke="#424242" points="89,-259 89,-253 "/>
<polyline fill="none" stroke="#424242" points="95,-253 89,-253 "/>
<text text-anchor="middle" x="47.5" y="-243.8" font-family="Times,serif" font-size="14.00" fill="#242424">application</text>
<text text-anchor="middle" x="47.5" y="-228.8" font-family="Times,serif" font-size="14.00" fill="#242424">state</text>
</g>
<!-- ui_code -->
<g id="node2" class="node">
<title>ui_code</title>
<polygon fill="none" stroke="#424242" points="276,-348 170,-295 276,-242 382,-295 276,-348"/>
<text text-anchor="middle" x="276" y="-306.3" font-family="Times,serif" font-size="14.00" fill="#242424">declarative</text>
<text text-anchor="middle" x="276" y="-291.3" font-family="Times,serif" font-size="14.00" fill="#242424">UI</text>
<text text-anchor="middle" x="276" y="-276.3" font-family="Times,serif" font-size="14.00" fill="#242424">specification</text>
</g>
<!-- state&#45;&gt;ui_code -->
<g id="edge1" class="edge">
<title>state&#45;&gt;ui_code</title>
<path fill="none" stroke="#424242" d="M95.16,-251.33C123.8,-258.28 161.25,-267.38 194.56,-275.47"/>
<polygon fill="#424242" stroke="#424242" points="193.75,-278.87 204.29,-277.83 195.4,-272.07 193.75,-278.87"/>
<text text-anchor="middle" x="132.5" y="-282.8" font-family="Times,serif" font-size="14.00">feeds</text>
<text text-anchor="middle" x="132.5" y="-267.8" font-family="Times,serif" font-size="14.00">into</text>
</g>
<!-- ui -->
<g id="node4" class="node">
<title>ui</title>
<polygon fill="none" stroke="#424242" points="568,-296 488,-296 488,-292 484,-292 484,-288 488,-288 488,-266 484,-266 484,-262 488,-262 488,-258 568,-258 568,-296"/>
<polyline fill="none" stroke="#424242" points="488,-292 492,-292 492,-288 488,-288 "/>
<polyline fill="none" stroke="#424242" points="488,-266 492,-266 492,-262 488,-262 "/>
<text text-anchor="middle" x="528" y="-280.8" font-family="Times,serif" font-size="14.00" fill="#242424">user</text>
<text text-anchor="middle" x="528" y="-265.8" font-family="Times,serif" font-size="14.00" fill="#242424">interface</text>
</g>
<!-- ui_code&#45;&gt;ui -->
<g id="edge2" class="edge">
<title>ui_code&#45;&gt;ui</title>
<path fill="none" stroke="#424242" d="M369.03,-288.37C405.8,-285.73 446.68,-282.78 477.63,-280.55"/>
<polygon fill="#424242" stroke="#424242" points="478.01,-284.04 487.73,-279.83 477.51,-277.05 478.01,-284.04"/>
<text text-anchor="middle" x="435" y="-304.8" font-family="Times,serif" font-size="14.00">produces/</text>
<text text-anchor="middle" x="435" y="-289.8" font-family="Times,serif" font-size="14.00">updates</text>
</g>
<!-- event_handler -->
<g id="node3" class="node">
<title>event_handler</title>
<polygon fill="none" stroke="#424242" points="276,-224 205,-186 276,-148 347,-186 276,-224"/>
<text text-anchor="middle" x="276" y="-189.8" font-family="Times,serif" font-size="14.00" fill="#242424">event</text>
<text text-anchor="middle" x="276" y="-174.8" font-family="Times,serif" font-size="14.00" fill="#242424">handler</text>
</g>
<!-- event_handler&#45;&gt;state -->
<g id="edge5" class="edge">
<title>event_handler&#45;&gt;state</title>
<path fill="none" stroke="#424242" stroke-dasharray="5,2" d="M226.45,-197.58C190.79,-206.08 142.26,-217.65 104.89,-226.56"/>
<polygon fill="#424242" stroke="#424242" points="104.07,-223.15 95.16,-228.88 105.7,-229.96 104.07,-223.15"/>
<text text-anchor="middle" x="131.83" y="-202.02" font-family="Times,serif" font-size="14.00">(maybe)</text>
<text text-anchor="middle" x="131.83" y="-187.02" font-family="Times,serif" font-size="14.00">updates</text>
</g>
<!-- effects -->
<g id="node6" class="node">
<title>effects</title>
<polygon fill="none" stroke="#424242" points="354.59,-76 229.57,-76 197.41,0 322.43,0 354.59,-76"/>
<text text-anchor="middle" x="276" y="-41.8" font-family="Times,serif" font-size="14.00" fill="#242424">external</text>
<text text-anchor="middle" x="276" y="-26.8" font-family="Times,serif" font-size="14.00" fill="#242424">effects</text>
</g>
<!-- event_handler&#45;&gt;effects -->
<g id="edge6" class="edge">
<title>event_handler&#45;&gt;effects</title>
<path fill="none" stroke="#424242" stroke-dasharray="5,2" d="M276,-147.81C276,-127.29 276,-106.76 276,-86.23"/>
<polygon fill="#424242" stroke="#424242" points="279.5,-86.16 276,-76.16 272.5,-86.16 279.5,-86.16"/>
<text text-anchor="middle" x="309" y="-119.51" font-family="Times,serif" font-size="14.00">(maybe)</text>
<text text-anchor="middle" x="309" y="-104.51" font-family="Times,serif" font-size="14.00">produces</text>
</g>
<!-- event -->
<g id="node5" class="node">
<title>event</title>
<polygon fill="none" stroke="#424242" points="550,-204 500,-204 500,-168 556,-168 556,-198 550,-204"/>
<polyline fill="none" stroke="#424242" points="550,-204 550,-198 "/>
<polyline fill="none" stroke="#424242" points="556,-198 550,-198 "/>
<text text-anchor="middle" x="528" y="-182.3" font-family="Times,serif" font-size="14.00" fill="#242424">event</text>
</g>
<!-- ui&#45;&gt;event -->
<g id="edge3" class="edge">
<title>ui&#45;&gt;event</title>
<path fill="none" stroke="#424242" d="M528,-257.99C528,-245.44 528,-228.76 528,-214.62"/>
<polygon fill="#424242" stroke="#424242" points="531.5,-214.42 528,-204.42 524.5,-214.42 531.5,-214.42"/>
<text text-anchor="middle" x="517.5" y="-227.3" font-family="Times,serif" font-size="14.00">generates &#160;&#160;&#160;&#160;&#160;&#160;&#160;&#160;&#160;&#160;&#160;</text>
</g>
<!-- event&#45;&gt;event_handler -->
<g id="edge4" class="edge">
<title>event&#45;&gt;event_handler</title>
<path fill="none" stroke="#424242" d="M499.91,-186C466.05,-186 406.58,-186 357.59,-186"/>
<polygon fill="#424242" stroke="#424242" points="357.3,-182.5 347.3,-186 357.3,-189.5 357.3,-182.5"/>
<text text-anchor="middle" x="414.59" y="-170.51" font-family="Times,serif" font-size="14.00">feeds</text>
<text text-anchor="middle" x="414.59" y="-155.51" font-family="Times,serif" font-size="14.00">into</text>
</g>
<!-- event&#45;&gt;effects -->
</g>
</svg>
